<?xml version="1.0" standalone="no"?>
<!DOCTYPE svg PUBLIC "-//W3C//DTD SVG 20010904//EN"
 "http://www.w3.org/TR/2001/REC-SVG-20010904/DTD/svg10.dtd">
<svg version="1.0" xmlns="http://www.w3.org/2000/svg"
 width="100.000000pt" height="100.000000pt" viewBox="0 0 100.000000 100.000000"
 preserveAspectRatio="xMidYMid meet">
<metadata>
Created by potrace 1.14, written by Peter Selinger 2001-2017
</metadata>
<g transform="translate(0.000000,100.000000) scale(0.100000,-0.100000)"
fill="#000000" stroke="none">
<path d="M386 985 c-286 -73 -451 -374 -356 -649 68 -200 259 -336 470 -336
275 0 500 225 500 500 0 211 -136 401 -336 470 -78 28 -202 34 -278 15z m344
-210 c0 -41 -2 -45 -25 -45 -18 0 -25 5 -25 19 0 19 -34 31 -90 31 -59 0 -60
-2 -60 -129 0 -117 -7 -145 -36 -134 -11 4 -14 32 -14 124 0 132 -3 137 -70
134 -19 -1 -46 -3 -58 -4 -15 0 -26 -9 -29 -21 -3 -13 -14 -20 -29 -20 -22 0
-24 4 -24 45 l0 45 230 0 230 0 0 -45z m-362 -244 l134 -71 136 72 c107 56
146 72 184 74 45 2 48 0 48 -22 0 -17 -6 -24 -19 -24 -34 0 -42 -24 -39 -112
3 -82 3 -83 31 -86 21 -3 27 -9 27 -28 0 -23 -2 -24 -80 -24 -78 0 -80 1 -80
24 0 18 6 25 23 28 20 3 22 9 25 86 2 58 -1 82 -9 82 -7 0 -63 -27 -125 -60
-62 -33 -116 -60 -121 -60 -4 0 -60 27 -123 60 -63 33 -121 60 -128 60 -10 0
-12 -20 -10 -82 3 -77 5 -83 26 -86 16 -3 22 -10 22 -28 0 -23 -2 -24 -80 -24
-78 0 -80 1 -80 24 0 19 6 25 28 28 l27 3 0 95 0 95 -27 3 c-42 5 -38 40 5 44
57 6 70 2 205 -71z m162 -236 l5 -70 38 -3 c32 -3 37 -7 37 -28 0 -24 0 -24
-104 -24 -103 0 -104 0 -108 25 -5 23 -2 25 32 25 45 0 50 9 50 92 0 56 1 59
23 56 20 -3 22 -10 27 -73z"/>
</g>
</svg>
